<svg width="480" height="480" viewBox="0 0 480 480" fill="none" xmlns="http://www.w3.org/2000/svg">
<circle cx="240" cy="240" r="175" stroke="#FFD700" stroke-width="50"/>
<path d="M216.128 295.409V293.918C216.294 278.091 217.951 265.497 221.099 256.134C224.248 246.77 228.723 239.189 234.523 233.388C240.323 227.588 247.283 222.244 255.403 217.355C260.292 214.372 264.684 210.851 268.578 206.79C272.473 202.647 275.538 197.883 277.776 192.497C280.096 187.111 281.256 181.145 281.256 174.599C281.256 166.479 279.35 159.436 275.538 153.47C271.727 147.504 266.631 142.906 260.251 139.674C253.871 136.442 246.786 134.827 238.997 134.827C232.203 134.827 225.657 136.235 219.359 139.053C213.062 141.87 207.8 146.303 203.575 152.352C199.349 158.4 196.904 166.313 196.241 176.091H164.92C165.583 162.005 169.229 149.949 175.858 139.923C182.57 129.897 191.394 122.232 202.332 116.929C213.352 111.626 225.574 108.974 238.997 108.974C253.58 108.974 266.258 111.875 277.03 117.675C287.884 123.475 296.253 131.429 302.136 141.538C308.102 151.647 311.085 163.165 311.085 176.091C311.085 185.205 309.677 193.45 306.859 200.825C304.125 208.199 300.148 214.786 294.928 220.587C289.79 226.387 283.576 231.524 276.284 235.999C268.992 240.556 263.151 245.362 258.759 250.416C254.368 255.388 251.178 261.312 249.189 268.19C247.2 275.067 246.123 283.643 245.957 293.918V295.409H216.128ZM232.037 368.989C225.905 368.989 220.644 366.793 216.252 362.401C211.861 358.01 209.665 352.748 209.665 346.616C209.665 340.485 211.861 335.223 216.252 330.832C220.644 326.44 225.905 324.244 232.037 324.244C238.169 324.244 243.43 326.44 247.822 330.832C252.213 335.223 254.409 340.485 254.409 346.616C254.409 350.677 253.373 354.405 251.302 357.803C249.313 361.2 246.62 363.934 243.223 366.006C239.909 367.994 236.18 368.989 232.037 368.989Z" fill="#FFD700"/>
<rect x="40" y="4" width="53.9" height="30" rx="3" fill="#444444"/>
<rect x="40.5" y="4.5" width="52.9" height="29" rx="2.5" stroke="white" stroke-opacity="0.0980392"/>
<path d="M51.0938 17.3437L50.2656 17.5781C50.2135 17.4401 50.1367 17.306 50.0352 17.1758C49.9362 17.043 49.8008 16.9336 49.6289 16.8477C49.457 16.7617 49.237 16.7187 48.9688 16.7187C48.6016 16.7187 48.2956 16.8034 48.0508 16.9727C47.8086 17.1393 47.6875 17.3516 47.6875 17.6094C47.6875 17.8385 47.7708 18.0195 47.9375 18.1523C48.1042 18.2852 48.3646 18.3958 48.7188 18.4844L49.6094 18.7031C50.1458 18.8333 50.5456 19.0326 50.8086 19.3008C51.0716 19.5664 51.2031 19.9089 51.2031 20.3281C51.2031 20.6719 51.1042 20.9792 50.9063 21.25C50.7109 21.5208 50.4375 21.7344 50.0859 21.8906C49.7344 22.0469 49.3255 22.125 48.8594 22.125C48.2474 22.125 47.7409 21.9922 47.3398 21.7266C46.9388 21.4609 46.6849 21.0729 46.5781 20.5625L47.4531 20.3437C47.5365 20.6667 47.694 20.9089 47.9258 21.0703C48.1602 21.2318 48.4661 21.3125 48.8438 21.3125C49.2734 21.3125 49.6146 21.2214 49.8672 21.0391C50.1224 20.8542 50.25 20.6328 50.25 20.375C50.25 20.1667 50.1771 19.9922 50.0313 19.8516C49.8854 19.7083 49.6615 19.6016 49.3594 19.5312L48.3594 19.2969C47.8099 19.1667 47.4062 18.9648 47.1484 18.6914C46.8932 18.4154 46.7656 18.0703 46.7656 17.6562C46.7656 17.3177 46.8607 17.0182 47.0508 16.7578C47.2435 16.4974 47.5052 16.293 47.8359 16.1445C48.1693 15.9961 48.5469 15.9219 48.9688 15.9219C49.5625 15.9219 50.0286 16.0521 50.3672 16.3125C50.7083 16.5729 50.9505 16.9167 51.0938 17.3437ZM55.1064 22.125C54.5283 22.125 54.0296 21.9974 53.6104 21.7422C53.1937 21.4844 52.8721 21.125 52.6455 20.6641C52.4215 20.2005 52.3096 19.6615 52.3096 19.0469C52.3096 18.4323 52.4215 17.8906 52.6455 17.4219C52.8721 16.9505 53.1872 16.5833 53.5908 16.3203C53.9971 16.0547 54.471 15.9219 55.0127 15.9219C55.3252 15.9219 55.6338 15.974 55.9385 16.0781C56.2432 16.1823 56.5205 16.3516 56.7705 16.5859C57.0205 16.8177 57.2197 17.125 57.3682 17.5078C57.5166 17.8906 57.5908 18.362 57.5908 18.9219V19.3125H52.9658V18.5156H56.6533C56.6533 18.1771 56.5856 17.875 56.4502 17.6094C56.3174 17.3437 56.1273 17.1341 55.8799 16.9805C55.6351 16.8268 55.346 16.75 55.0127 16.75C54.6455 16.75 54.3278 16.8411 54.0596 17.0234C53.7939 17.2031 53.5895 17.4375 53.4463 17.7266C53.3031 18.0156 53.2314 18.3255 53.2314 18.6562V19.1875C53.2314 19.6406 53.3096 20.0247 53.4658 20.3398C53.6247 20.6523 53.8447 20.8906 54.126 21.0547C54.4072 21.2161 54.734 21.2969 55.1064 21.2969C55.3486 21.2969 55.5674 21.263 55.7627 21.1953C55.9606 21.125 56.1312 21.0208 56.2744 20.8828C56.4176 20.7422 56.5283 20.5677 56.6064 20.3594L57.4971 20.6094C57.4033 20.9115 57.2458 21.1771 57.0244 21.4062C56.8031 21.6328 56.5296 21.8099 56.2041 21.9375C55.8786 22.0625 55.5127 22.125 55.1064 22.125ZM59.915 14V22H58.9932V14H59.915ZM64.1191 22.125C63.541 22.125 63.0423 21.9974 62.623 21.7422C62.2064 21.4844 61.8848 21.125 61.6582 20.6641C61.4342 20.2005 61.3223 19.6615 61.3223 19.0469C61.3223 18.4323 61.4342 17.8906 61.6582 17.4219C61.8848 16.9505 62.1999 16.5833 62.6035 16.3203C63.0098 16.0547 63.4837 15.9219 64.0254 15.9219C64.3379 15.9219 64.6465 15.974 64.9512 16.0781C65.2559 16.1823 65.5332 16.3516 65.7832 16.5859C66.0332 16.8177 66.2324 17.125 66.3809 17.5078C66.5293 17.8906 66.6035 18.362 66.6035 18.9219V19.3125H61.9785V18.5156H65.666C65.666 18.1771 65.5983 17.875 65.4629 17.6094C65.3301 17.3437 65.14 17.1341 64.8926 16.9805C64.6478 16.8268 64.3587 16.75 64.0254 16.75C63.6582 16.75 63.3405 16.8411 63.0723 17.0234C62.8066 17.2031 62.6022 17.4375 62.459 17.7266C62.3158 18.0156 62.2441 18.3255 62.2441 18.6562V19.1875C62.2441 19.6406 62.3223 20.0247 62.4785 20.3398C62.6374 20.6523 62.8574 20.8906 63.1387 21.0547C63.4199 21.2161 63.7467 21.2969 64.1191 21.2969C64.3613 21.2969 64.5801 21.263 64.7754 21.1953C64.9733 21.125 65.1439 21.0208 65.2871 20.8828C65.4303 20.7422 65.541 20.5677 65.6191 20.3594L66.5098 20.6094C66.416 20.9115 66.2585 21.1771 66.0371 21.4062C65.8158 21.6328 65.5423 21.8099 65.2168 21.9375C64.8913 22.0625 64.5254 22.125 64.1191 22.125ZM70.4434 22.125C69.8809 22.125 69.3965 21.9922 68.9902 21.7266C68.584 21.4609 68.2715 21.0951 68.0527 20.6289C67.834 20.1628 67.7246 19.6302 67.7246 19.0312C67.7246 18.4219 67.8366 17.8841 68.0605 17.418C68.2871 16.9492 68.6022 16.5833 69.0059 16.3203C69.4121 16.0547 69.8861 15.9219 70.4277 15.9219C70.8496 15.9219 71.2298 16 71.5684 16.1562C71.9069 16.3125 72.1842 16.5312 72.4004 16.8125C72.6165 17.0937 72.7507 17.4219 72.8027 17.7969H71.8809C71.8105 17.5234 71.6543 17.2812 71.4121 17.0703C71.1725 16.8568 70.8496 16.75 70.4434 16.75C70.084 16.75 69.7689 16.8437 69.498 17.0312C69.2298 17.2161 69.0202 17.4779 68.8691 17.8164C68.7207 18.1523 68.6465 18.5469 68.6465 19C68.6465 19.4635 68.7194 19.8672 68.8652 20.2109C69.0137 20.5547 69.222 20.8216 69.4902 21.0117C69.7611 21.2018 70.0788 21.2969 70.4434 21.2969C70.6829 21.2969 70.9004 21.2552 71.0957 21.1719C71.291 21.0885 71.4564 20.9688 71.5918 20.8125C71.7272 20.6562 71.8236 20.4687 71.8809 20.25H72.8027C72.7507 20.6042 72.6217 20.9232 72.416 21.207C72.2129 21.4883 71.9434 21.7122 71.6074 21.8789C71.2741 22.043 70.8861 22.125 70.4434 22.125ZM76.7598 16V16.7812H73.6504V16H76.7598ZM74.5566 14.5625H75.4785V20.2812C75.4785 20.5417 75.5163 20.737 75.5918 20.8672C75.6699 20.9948 75.7689 21.0807 75.8887 21.125C76.0111 21.1667 76.14 21.1875 76.2754 21.1875C76.377 21.1875 76.4603 21.1823 76.5254 21.1719C76.5905 21.1589 76.6426 21.1484 76.6816 21.1406L76.8691 21.9687C76.8066 21.9922 76.7194 22.0156 76.6074 22.0391C76.4954 22.0651 76.3535 22.0781 76.1816 22.0781C75.9212 22.0781 75.666 22.0221 75.416 21.9102C75.1686 21.7982 74.9629 21.6276 74.7988 21.3984C74.6374 21.1693 74.5566 20.8802 74.5566 20.5312V14.5625ZM80.5195 22.125C79.9779 22.125 79.5026 21.9961 79.0938 21.7383C78.6875 21.4805 78.3698 21.1198 78.1406 20.6562C77.9141 20.1927 77.8008 19.651 77.8008 19.0312C77.8008 18.4062 77.9141 17.8607 78.1406 17.3945C78.3698 16.9284 78.6875 16.5664 79.0938 16.3086C79.5026 16.0508 79.9779 15.9219 80.5195 15.9219C81.0612 15.9219 81.5352 16.0508 81.9414 16.3086C82.3503 16.5664 82.668 16.9284 82.8945 17.3945C83.1237 17.8607 83.2383 18.4062 83.2383 19.0312C83.2383 19.651 83.1237 20.1927 82.8945 20.6562C82.668 21.1198 82.3503 21.4805 81.9414 21.7383C81.5352 21.9961 81.0612 22.125 80.5195 22.125ZM80.5195 21.2969C80.931 21.2969 81.2695 21.1914 81.5352 20.9805C81.8008 20.7695 81.9974 20.4922 82.125 20.1484C82.2526 19.8047 82.3164 19.4323 82.3164 19.0312C82.3164 18.6302 82.2526 18.2565 82.125 17.9102C81.9974 17.5638 81.8008 17.2839 81.5352 17.0703C81.2695 16.8568 80.931 16.75 80.5195 16.75C80.1081 16.75 79.7695 16.8568 79.5039 17.0703C79.2383 17.2839 79.0417 17.5638 78.9141 17.9102C78.7865 18.2565 78.7227 18.6302 78.7227 19.0312C78.7227 19.4323 78.7865 19.8047 78.9141 20.1484C79.0417 20.4922 79.2383 20.7695 79.5039 20.9805C79.7695 21.1914 80.1081 21.2969 80.5195 21.2969ZM84.6455 22V16H85.5361V16.9062H85.5986C85.708 16.6094 85.9059 16.3685 86.1924 16.1836C86.4788 15.9987 86.8018 15.9062 87.1611 15.9062C87.2288 15.9062 87.3135 15.9076 87.415 15.9102C87.5166 15.9128 87.5934 15.9167 87.6455 15.9219V16.8594C87.6143 16.8516 87.5426 16.8398 87.4307 16.8242C87.3213 16.806 87.2054 16.7969 87.083 16.7969C86.7913 16.7969 86.5309 16.8581 86.3018 16.9805C86.0752 17.1003 85.8955 17.2669 85.7627 17.4805C85.6325 17.6914 85.5674 17.9323 85.5674 18.2031V22H84.6455Z" fill="white"/>
</svg>
